<?xml version="1.0" encoding="utf-8"?>
<svg viewBox="0 0 500 500" xmlns="http://www.w3.org/2000/svg">
  <path d="M 181.703 183.351 L 187.863 183.351 L 167.633 237.601 L 161.473 237.601 L 181.703 183.351 ZM 213.729 196.191 C 215.529 196.191 217.149 196.338 218.589 196.631 L 217.729 202.351 C 216.049 201.978 214.565 201.791 213.279 201.791 C 209.992 201.791 207.179 203.128 204.839 205.801 C 202.499 208.474 201.329 211.801 201.329 215.781 L 201.329 237.601 L 195.169 237.601 L 195.169 196.931 L 200.259 196.931 L 200.959 204.461 L 201.259 204.461 C 202.765 201.814 204.582 199.774 206.709 198.341 C 208.835 196.908 211.175 196.191 213.729 196.191 ZM 243.371 238.341 C 237.364 238.341 232.621 236.511 229.141 232.851 C 225.668 229.191 223.931 224.108 223.931 217.601 C 223.931 211.041 225.544 205.831 228.771 201.971 C 231.998 198.118 236.334 196.191 241.781 196.191 C 246.874 196.191 250.904 197.864 253.871 201.211 C 256.844 204.564 258.331 208.988 258.331 214.481 L 258.331 218.381 L 230.311 218.381 C 230.438 223.154 231.644 226.778 233.931 229.251 C 236.218 231.724 239.441 232.961 243.601 232.961 C 247.974 232.961 252.301 232.048 256.581 230.221 L 256.581 235.711 C 254.408 236.651 252.351 237.324 250.411 237.731 C 248.464 238.138 246.118 238.341 243.371 238.341 Z M 241.701 201.341 C 238.434 201.341 235.831 202.408 233.891 204.541 C 231.951 206.668 230.808 209.611 230.461 213.371 L 251.721 213.371 C 251.721 209.484 250.854 206.508 249.121 204.441 C 247.394 202.374 244.921 201.341 241.701 201.341 ZM 288.049 196.931 L 302.119 196.931 L 302.119 200.821 L 294.589 201.721 C 295.275 202.581 295.892 203.711 296.439 205.111 C 296.985 206.511 297.259 208.088 297.259 209.841 C 297.259 213.828 295.899 217.008 293.179 219.381 C 290.452 221.754 286.715 222.941 281.969 222.941 C 280.755 222.941 279.615 222.841 278.549 222.641 C 275.929 224.028 274.619 225.774 274.619 227.881 C 274.619 228.994 275.075 229.818 275.989 230.351 C 276.909 230.878 278.482 231.141 280.709 231.141 L 287.909 231.141 C 292.309 231.141 295.689 232.071 298.049 233.931 C 300.415 235.784 301.599 238.481 301.599 242.021 C 301.599 246.521 299.792 249.951 296.179 252.311 C 292.565 254.678 287.295 255.861 280.369 255.861 C 275.049 255.861 270.949 254.871 268.069 252.891 C 265.189 250.911 263.749 248.114 263.749 244.501 C 263.749 242.028 264.539 239.888 266.119 238.081 C 267.705 236.274 269.932 235.051 272.799 234.411 C 271.759 233.938 270.889 233.208 270.189 232.221 C 269.482 231.228 269.129 230.078 269.129 228.771 C 269.129 227.284 269.525 225.984 270.319 224.871 C 271.105 223.758 272.352 222.681 274.059 221.641 C 271.959 220.774 270.245 219.304 268.919 217.231 C 267.599 215.151 266.939 212.774 266.939 210.101 C 266.939 205.648 268.275 202.214 270.949 199.801 C 273.615 197.394 277.399 196.191 282.299 196.191 C 284.425 196.191 286.342 196.438 288.049 196.931 Z M 269.679 244.431 C 269.679 246.631 270.609 248.301 272.469 249.441 C 274.322 250.574 276.982 251.141 280.449 251.141 C 285.615 251.141 289.442 250.371 291.929 248.831 C 294.415 247.284 295.659 245.188 295.659 242.541 C 295.659 240.334 294.979 238.804 293.619 237.951 C 292.259 237.098 289.699 236.671 285.939 236.671 L 278.549 236.671 C 275.755 236.671 273.579 237.341 272.019 238.681 C 270.459 240.014 269.679 241.931 269.679 244.431 Z M 273.019 209.951 C 273.019 212.798 273.825 214.951 275.439 216.411 C 277.045 217.871 279.282 218.601 282.149 218.601 C 288.162 218.601 291.169 215.681 291.169 209.841 C 291.169 203.734 288.125 200.681 282.039 200.681 C 279.145 200.681 276.919 201.458 275.359 203.011 C 273.799 204.571 273.019 206.884 273.019 209.951 ZM 327.644 238.341 C 321.638 238.341 316.894 236.511 313.414 232.851 C 309.941 229.191 308.204 224.108 308.204 217.601 C 308.204 211.041 309.818 205.831 313.044 201.971 C 316.271 198.118 320.608 196.191 326.054 196.191 C 331.148 196.191 335.178 197.864 338.144 201.211 C 341.118 204.564 342.604 208.988 342.604 214.481 L 342.604 218.381 L 314.584 218.381 C 314.711 223.154 315.918 226.778 318.204 229.251 C 320.491 231.724 323.714 232.961 327.874 232.961 C 332.248 232.961 336.574 232.048 340.854 230.221 L 340.854 235.711 C 338.681 236.651 336.624 237.324 334.684 237.731 C 332.738 238.138 330.391 238.341 327.644 238.341 Z M 325.974 201.341 C 322.708 201.341 320.104 202.408 318.164 204.541 C 316.224 206.668 315.081 209.611 314.734 213.371 L 335.994 213.371 C 335.994 209.484 335.128 206.508 333.394 204.441 C 331.668 202.374 329.194 201.341 325.974 201.341 ZM 348.022 237.601 L 362.902 216.781 L 348.762 196.931 L 355.772 196.931 L 366.502 212.511 L 377.192 196.931 L 384.122 196.931 L 369.992 216.781 L 384.872 237.601 L 377.892 237.601 L 366.502 221.121 L 354.992 237.601 L 348.022 237.601 ZM 407.359 183.351 L 413.519 183.351 L 393.289 237.601 L 387.129 237.601 L 407.359 183.351 Z" transform="matrix(1.7641880512237549, 0, 0, 2.6957359313964844, -258.0767517089844, -450.10650634765625)" style="fill: rgb(242, 190, 76); stroke: rgb(242, 190, 76); white-space: pre;"/>
  <path d="M 182.434 314.928 H 234.133 V 389.129 H 337.529 V 426.229 H 234.133 V 500.429 H 182.434 V 426.229 H 79.038 V 389.129 H 182.434 Z" style="fill: rgb(159, 156, 156); stroke: rgb(218, 85, 85); stroke-width: 7px;" transform="matrix(0.90045, -0.434959, 0.953503, 0.64997, -331.366882, 178.558212)"/>
</svg>