<?xml version="1.0" encoding="utf-8"?>
<svg viewBox="0 0 500 500" xmlns="http://www.w3.org/2000/svg">
  <path d="M 180.873 224.501 L 180.873 237.091 C 180.873 239.978 181.7 242.071 183.353 243.371 C 185.006 244.671 187.433 245.348 190.633 245.401 L 190.633 251.341 C 185.26 251.288 181.103 250.058 178.163 247.651 C 175.223 245.251 173.753 241.874 173.753 237.521 L 173.753 224.671 C 173.753 221.731 172.863 219.631 171.083 218.371 C 169.303 217.111 166.716 216.481 163.323 216.481 L 163.323 210.501 C 166.996 210.448 169.653 209.771 171.293 208.471 C 172.933 207.171 173.753 205.161 173.753 202.441 L 173.753 189.471 C 173.753 185.091 175.28 181.684 178.333 179.251 C 181.386 176.818 185.486 175.601 190.633 175.601 L 190.633 181.501 C 184.126 181.668 180.873 184.478 180.873 189.931 L 180.873 202.441 C 180.873 208.521 177.723 212.114 171.423 213.221 L 171.423 213.721 C 177.723 214.828 180.873 218.421 180.873 224.501 ZM 200.09 233.101 C 200.09 231.208 200.52 229.774 201.38 228.801 C 202.24 227.828 203.477 227.341 205.09 227.341 C 206.73 227.341 208.01 227.828 208.93 228.801 C 209.85 229.774 210.31 231.208 210.31 233.101 C 210.31 234.941 209.844 236.358 208.91 237.351 C 207.977 238.338 206.704 238.831 205.09 238.831 C 203.65 238.831 202.457 238.384 201.51 237.491 C 200.564 236.604 200.09 235.141 200.09 233.101 ZM 223.202 233.101 C 223.202 231.208 223.632 229.774 224.492 228.801 C 225.352 227.828 226.588 227.341 228.202 227.341 C 229.842 227.341 231.122 227.828 232.042 228.801 C 232.962 229.774 233.422 231.208 233.422 233.101 C 233.422 234.941 232.955 236.358 232.022 237.351 C 231.088 238.338 229.815 238.831 228.202 238.831 C 226.762 238.831 225.568 238.384 224.622 237.491 C 223.675 236.604 223.202 235.141 223.202 233.101 ZM 246.313 233.101 C 246.313 231.208 246.743 229.774 247.603 228.801 C 248.463 227.828 249.7 227.341 251.313 227.341 C 252.953 227.341 254.233 227.828 255.153 228.801 C 256.073 229.774 256.533 231.208 256.533 233.101 C 256.533 234.941 256.067 236.358 255.133 237.351 C 254.2 238.338 252.927 238.831 251.313 238.831 C 249.873 238.831 248.68 238.384 247.733 237.491 C 246.787 236.604 246.313 235.141 246.313 233.101 ZM 285.115 213.721 L 285.115 213.221 C 278.808 212.114 275.655 208.521 275.655 202.441 L 275.655 189.931 C 275.655 184.478 272.445 181.668 266.025 181.501 L 266.025 175.601 C 271.231 175.601 275.325 176.831 278.305 179.291 C 281.285 181.751 282.775 185.144 282.775 189.471 L 282.775 202.441 C 282.775 205.188 283.611 207.204 285.285 208.491 C 286.951 209.778 289.621 210.448 293.295 210.501 L 293.295 216.481 C 289.848 216.481 287.235 217.111 285.455 218.371 C 283.668 219.631 282.775 221.731 282.775 224.671 L 282.775 237.521 C 282.775 241.841 281.328 245.211 278.435 247.631 C 275.535 250.051 271.398 251.288 266.025 251.341 L 266.025 245.401 C 269.165 245.348 271.555 244.671 273.195 243.371 C 274.835 242.071 275.655 239.978 275.655 237.091 L 275.655 224.501 C 275.655 221.274 276.431 218.814 277.985 217.121 C 279.538 215.421 281.915 214.288 285.115 213.721 Z" transform="matrix(1.7048310041427612, 0, 0, 2.861475944519043, 2.1830289363861084, -355.8512268066406)" style="fill: rgb(242, 190, 76); stroke: rgb(242, 190, 76); white-space: pre;"/>
  <rect x="22.714" y="136.94" width="162.821" height="219.298" style="fill: rgb(216, 216, 216); stroke: rgb(17, 17, 16); stroke-width: 12px;"/>
  <rect y="160.681" width="132.536" height="8.953" style="stroke: rgb(13, 13, 12); fill: rgb(67, 66, 66);" x="38.245"/>
  <rect y="228.652" width="132.536" height="8.953" style="stroke: rgb(13, 13, 12); fill: rgb(67, 66, 66);" x="38.245"/>
  <rect y="205.614" width="132.536" height="8.953" style="stroke: rgb(13, 13, 12); fill: rgb(67, 66, 66);" x="38.01"/>
  <rect y="182.901" width="132.536" height="8.953" style="stroke: rgb(13, 13, 12); fill: rgb(67, 66, 66);" x="38.245"/>
  <rect y="251.796" width="132.536" height="8.953" style="stroke: rgb(13, 13, 12); fill: rgb(67, 66, 66);" x="37.839"/>
  <rect y="275.232" width="132.536" height="8.953" style="stroke: rgb(13, 13, 12); fill: rgb(67, 66, 66);" x="38.367"/>
  <rect y="299.032" width="132.536" height="8.953" style="stroke: rgb(13, 13, 12); fill: rgb(67, 66, 66);" x="38.387"/>
  <rect y="320.565" width="132.536" height="8.953" style="stroke: rgb(13, 13, 12); fill: rgb(67, 66, 66);" x="38.245"/>
  <line style="stroke: rgb(0, 0, 0);" x1="92.453" y1="256.39" x2="90.787" y2="258.471"/>
  <line style="stroke: rgb(242, 190, 76);" x1="93.552" y1="258.604" x2="92.492" y2="256.631"/>
  <path d="M 141.306 212.815 H 184.503 L 184.503 201.315 L 208.091 231.315 L 184.503 261.315 L 184.503 249.815 H 141.306 V 212.815 Z" style="fill: rgb(216, 216, 216);" transform="matrix(0.999996, 0.002935, -0.002935, 0.999996, 64.761063, 28.715061)"/>
</svg>