<?xml version="1.0" encoding="utf-8"?>
<svg viewBox="0 0 500 500" xmlns="http://www.w3.org/2000/svg">
  <path d="M 171.225 374.78 L 171.225 410.806 C 171.225 419.067 172.635 425.056 175.453 428.776 C 178.271 432.496 182.409 434.433 187.864 434.585 L 187.864 451.582 C 178.704 451.43 171.617 447.911 166.605 441.023 C 161.593 434.156 159.087 424.492 159.087 412.036 L 159.087 375.266 C 159.087 366.854 157.569 360.845 154.535 357.239 C 151.5 353.634 147.09 351.831 141.305 351.831 L 141.305 334.719 C 147.567 334.568 152.097 332.63 154.893 328.91 C 157.689 325.191 159.087 319.439 159.087 311.656 L 159.087 274.542 C 159.087 262.009 161.69 252.26 166.895 245.298 C 172.1 238.336 179.089 234.854 187.864 234.854 L 187.864 251.736 C 176.771 252.214 171.225 260.255 171.225 275.859 L 171.225 311.656 C 171.225 329.054 165.855 339.335 155.114 342.503 L 155.114 343.933 C 165.855 347.101 171.225 357.382 171.225 374.78 Z M 203.987 399.389 C 203.987 393.972 204.72 389.869 206.186 387.084 C 207.652 384.3 209.761 382.907 212.511 382.907 C 215.307 382.907 217.489 384.3 219.058 387.084 C 220.626 389.869 221.41 393.972 221.41 399.389 C 221.41 404.654 220.616 408.708 219.023 411.55 C 217.433 414.374 215.263 415.785 212.511 415.785 C 210.056 415.785 208.022 414.506 206.408 411.951 C 204.795 409.412 203.987 405.226 203.987 399.389 Z M 243.389 399.389 C 243.389 393.972 244.122 389.869 245.588 387.084 C 247.054 384.3 249.161 382.907 251.913 382.907 C 254.709 382.907 256.891 384.3 258.46 387.084 C 260.028 389.869 260.812 393.972 260.812 399.389 C 260.812 404.654 260.016 408.708 258.425 411.55 C 256.833 414.374 254.663 415.785 251.913 415.785 C 249.458 415.785 247.423 414.506 245.81 411.951 C 244.195 409.412 243.389 405.226 243.389 399.389 Z M 282.789 399.389 C 282.789 393.972 283.522 389.869 284.988 387.084 C 286.455 384.3 288.563 382.907 291.313 382.907 C 294.109 382.907 296.291 384.3 297.86 387.084 C 299.428 389.869 300.213 393.972 300.213 399.389 C 300.213 404.654 299.418 408.708 297.826 411.55 C 296.235 414.374 294.065 415.785 291.313 415.785 C 288.858 415.785 286.825 414.506 285.21 411.951 C 283.597 409.412 282.789 405.226 282.789 399.389 Z M 348.94 343.933 L 348.94 342.503 C 338.188 339.335 332.812 329.054 332.812 311.656 L 332.812 275.859 C 332.812 260.255 327.34 252.214 316.395 251.736 L 316.395 234.854 C 325.27 234.854 332.25 238.373 337.33 245.413 C 342.411 252.452 344.951 262.161 344.951 274.542 L 344.951 311.656 C 344.951 319.516 346.376 325.285 349.23 328.968 C 352.07 332.65 356.622 334.568 362.886 334.719 L 362.886 351.831 C 357.009 351.831 352.554 353.634 349.52 357.239 C 346.473 360.845 344.951 366.854 344.951 375.266 L 344.951 412.036 C 344.951 424.398 342.484 434.041 337.552 440.966 C 332.608 447.891 325.555 451.43 316.395 451.582 L 316.395 434.585 C 321.748 434.433 325.823 432.496 328.618 428.776 C 331.414 425.056 332.812 419.067 332.812 410.806 L 332.812 374.78 C 332.812 365.546 334.135 358.507 336.785 353.662 C 339.432 348.798 343.485 345.556 348.94 343.933 Z" style="fill: rgb(242, 190, 76); stroke: rgb(242, 190, 76); white-space: pre;"/>
  <path d="M 93.541 173.375 H 408.968 L 408.968 161.875 L 443.968 191.875 L 408.968 221.875 L 408.968 210.375 H 93.541 V 173.375 Z" style="fill: rgb(216, 216, 216);" transform="matrix(0.999998, 0.001883, -0.001883, 0.999998, -5.464141, 6.2617)"/>
  <path d="M 166.638 129.035 C 160.145 129.035 153.895 128.082 147.888 126.175 C 141.888 124.275 136.151 121.345 130.678 117.385 L 130.678 94.605 L 141.888 94.605 L 144.308 111.385 C 147.481 113.338 150.921 114.852 154.628 115.925 C 158.341 116.998 162.345 117.535 166.638 117.535 C 171.525 117.535 175.665 116.792 179.058 115.305 C 182.451 113.812 185.051 111.748 186.858 109.115 C 188.665 106.475 189.568 103.398 189.568 99.885 C 189.568 96.612 188.788 93.732 187.228 91.245 C 185.661 88.752 183.085 86.565 179.498 84.685 C 175.911 82.805 171.015 81.158 164.808 79.745 C 157.488 78.032 151.301 75.748 146.248 72.895 C 141.195 70.035 137.361 66.568 134.748 62.495 C 132.135 58.415 130.828 53.738 130.828 48.465 C 130.828 42.898 132.305 37.918 135.258 33.525 C 138.211 29.132 142.325 25.665 147.598 23.125 C 152.871 20.585 159.025 19.315 166.058 19.315 C 173.525 19.315 180.128 20.452 185.868 22.725 C 191.608 24.992 196.331 27.738 200.038 30.965 L 200.038 52.275 L 188.838 52.275 L 186.418 37.045 C 184.218 35.285 181.485 33.818 178.218 32.645 C 174.945 31.472 170.891 30.885 166.058 30.885 C 161.958 30.885 158.345 31.605 155.218 33.045 C 152.091 34.485 149.648 36.502 147.888 39.095 C 146.135 41.682 145.258 44.732 145.258 48.245 C 145.258 51.325 146.051 54.012 147.638 56.305 C 149.225 58.598 151.811 60.612 155.398 62.345 C 158.991 64.078 163.788 65.702 169.788 67.215 C 181.021 70.002 189.531 74.115 195.318 79.555 C 201.105 85.002 203.998 91.728 203.998 99.735 C 203.998 105.448 202.458 110.515 199.378 114.935 C 196.305 119.355 191.971 122.808 186.378 125.295 C 180.791 127.788 174.211 129.035 166.638 129.035 ZM 304.411 134.675 L 296.281 145.435 L 270.501 126.545 C 268.061 127.325 265.548 127.935 262.961 128.375 C 260.368 128.815 257.731 129.035 255.051 129.035 C 248.211 129.035 242.058 127.715 236.591 125.075 C 231.124 122.442 226.474 118.708 222.641 113.875 C 218.808 109.042 215.878 103.328 213.851 96.735 C 211.824 90.142 210.811 82.892 210.811 74.985 L 210.811 73.445 C 210.811 65.532 211.824 58.278 213.851 51.685 C 215.878 45.098 218.794 39.375 222.601 34.515 C 226.408 29.655 231.044 25.908 236.511 23.275 C 241.984 20.635 248.164 19.315 255.051 19.315 C 262.278 19.315 268.648 20.635 274.161 23.275 C 279.681 25.908 284.308 29.655 288.041 34.515 C 291.774 39.375 294.594 45.098 296.501 51.685 C 298.408 58.278 299.361 65.532 299.361 73.445 L 299.361 74.985 C 299.361 84.598 298.211 93.275 295.911 101.015 C 293.618 108.755 289.321 115.018 283.021 119.805 L 304.411 134.675 Z M 255.051 117.025 C 261.931 117.025 267.568 115.265 271.961 111.745 C 276.361 108.232 279.621 103.312 281.741 96.985 C 283.868 90.665 284.931 83.332 284.931 74.985 L 284.931 73.295 C 284.931 64.995 283.894 57.708 281.821 51.435 C 279.741 45.162 276.504 40.255 272.111 36.715 C 267.718 33.175 262.031 31.405 255.051 31.405 C 248.698 31.405 243.301 33.185 238.861 36.745 C 234.414 40.312 231.031 45.232 228.711 51.505 C 226.398 57.778 225.241 65.042 225.241 73.295 L 225.241 74.985 C 225.241 83.285 226.374 90.595 228.641 96.915 C 230.914 103.242 234.271 108.175 238.711 111.715 C 243.158 115.255 248.604 117.025 255.051 117.025 ZM 396.766 127.495 L 319.936 127.495 L 319.936 118.265 L 331.876 116.215 L 331.876 32.205 L 319.936 30.155 L 319.936 20.855 L 331.876 20.855 L 346.306 20.855 L 358.246 20.855 L 358.246 30.155 L 346.306 32.205 L 346.306 116.435 L 384.026 116.435 L 385.706 99.585 L 396.766 99.585 L 396.766 127.495 Z" transform="matrix(1, 0, 0, 1, 0, 0)" style="fill: rgb(151, 150, 150); white-space: pre;"/>
</svg>