<?xml version="1.0" encoding="utf-8"?>
<svg viewBox="0 0 500 500" xmlns="http://www.w3.org/2000/svg">
  <rect x="42.517" y="81.761" width="265.79" height="341.601" style="fill: rgb(216, 216, 216); stroke-width: 11px; stroke: rgb(90, 90, 90);"/>
  <line style="stroke: rgb(86, 85, 85); stroke-width: 10px;" x1="42.517" y1="134.386" x2="308.556" y2="134.188"/>
  <line style="stroke: rgb(86, 85, 85); stroke-width: 10px;" x1="42.517" y1="230.517" x2="308.556" y2="230.318"/>
  <line style="stroke: rgb(86, 85, 85); stroke-width: 10px;" x1="42.267" y1="182.452" x2="308.306" y2="182.253"/>
  <line style="stroke: rgb(86, 85, 85); stroke-width: 10px;" x1="42.517" y1="278.582" x2="308.556" y2="278.383"/>
  <line style="stroke: rgb(86, 85, 85); stroke-width: 10px;" x1="42.517" y1="326.647" x2="308.556" y2="326.45"/>
  <line style="stroke: rgb(86, 85, 85); stroke-width: 10px;" x1="42.267" y1="374.712" x2="308.306" y2="374.515"/>
  <line style="stroke: rgb(86, 85, 85); stroke-width: 10px;" x1="104.031" y1="81.761" x2="104.287" y2="423.362"/>
  <line style="stroke: rgb(86, 85, 85); stroke-width: 10px;" x1="181.888" y1="81.761" x2="181.925" y2="423.362"/>
  <line style="stroke: rgb(86, 85, 85); stroke-width: 10px;" x1="245.834" y1="81.761" x2="246.561" y2="423.362"/>
  <rect x="308.306" y="81.761" width="125.66" height="341.601" style="fill: rgb(216, 216, 216); stroke-width: 11px; stroke: rgb(159, 157, 154);"/>
  <line style="stroke-width: 10px; stroke: rgb(159, 157, 154);" x1="348.478" y1="81.761" x2="348.734" y2="423.362"/>
  <line style="stroke-width: 10px; stroke: rgb(159, 157, 154);" x1="394.048" y1="81.761" x2="394.304" y2="423.362"/>
  <line style="stroke-width: 10px; stroke: rgb(159, 157, 154);" x1="308.556" y1="134.188" x2="433.966" y2="133.991"/>
  <line style="stroke-width: 10px; stroke: rgb(159, 157, 154);" x1="308.306" y1="182.253" x2="433.716" y2="182.056"/>
  <line style="stroke-width: 10px; stroke: rgb(159, 157, 154);" x1="308.556" y1="230.318" x2="433.966" y2="230.121"/>
  <line style="stroke-width: 10px; stroke: rgb(159, 157, 154);" x1="308.306" y1="278.383" x2="433.716" y2="278.186"/>
  <line style="stroke-width: 10px; stroke: rgb(159, 157, 154);" x1="308.306" y1="326.45" x2="433.716" y2="326.253"/>
  <line style="stroke-width: 10px; stroke: rgb(159, 157, 154);" x1="308.306" y1="374.515" x2="433.716" y2="374.318"/>
  <rect x="10.661" y="172.548" width="467.769" height="133.217" style="fill: rgb(216, 216, 216); stroke: rgb(245, 161, 40); stroke-width: 11px;"/>
  <path d="M 182.31 224.154 C 179.237 224.154 176.277 223.704 173.43 222.804 C 170.59 221.897 167.877 220.511 165.29 218.644 L 165.29 207.854 L 170.59 207.854 L 171.74 215.794 C 173.24 216.721 174.867 217.437 176.62 217.944 C 178.38 218.457 180.277 218.714 182.31 218.714 C 184.623 218.714 186.583 218.361 188.19 217.654 C 189.79 216.947 191.02 215.971 191.88 214.724 C 192.733 213.477 193.16 212.021 193.16 210.354 C 193.16 208.807 192.79 207.444 192.05 206.264 C 191.31 205.084 190.09 204.051 188.39 203.164 C 186.69 202.271 184.373 201.491 181.44 200.824 C 177.973 200.011 175.043 198.931 172.65 197.584 C 170.263 196.231 168.45 194.587 167.21 192.654 C 165.977 190.727 165.36 188.514 165.36 186.014 C 165.36 183.381 166.057 181.024 167.45 178.944 C 168.85 176.864 170.8 175.224 173.3 174.024 C 175.793 172.824 178.703 172.224 182.03 172.224 C 185.57 172.224 188.697 172.761 191.41 173.834 C 194.123 174.907 196.36 176.207 198.12 177.734 L 198.12 187.824 L 192.81 187.824 L 191.67 180.614 C 190.63 179.781 189.337 179.084 187.79 178.524 C 186.237 177.971 184.317 177.694 182.03 177.694 C 180.09 177.694 178.38 178.037 176.9 178.724 C 175.42 179.404 174.263 180.357 173.43 181.584 C 172.603 182.804 172.19 184.247 172.19 185.914 C 172.19 187.367 172.563 188.637 173.31 189.724 C 174.063 190.811 175.29 191.764 176.99 192.584 C 178.69 193.404 180.96 194.174 183.8 194.894 C 189.113 196.207 193.14 198.154 195.88 200.734 C 198.62 203.314 199.99 206.497 199.99 210.284 C 199.99 212.991 199.263 215.387 197.81 217.474 C 196.35 219.567 194.297 221.204 191.65 222.384 C 189.003 223.564 185.89 224.154 182.31 224.154 ZM 244.359 223.424 L 205.919 223.424 L 205.919 219.054 L 211.569 218.084 L 211.569 178.324 L 205.919 177.354 L 205.919 172.944 L 243.289 172.944 L 243.289 185.084 L 237.809 185.084 L 237.049 178.214 L 218.399 178.214 L 218.399 194.654 L 237.019 194.654 L 237.019 200.024 L 218.399 200.024 L 218.399 218.294 L 238.159 218.294 L 238.919 211.324 L 244.359 211.324 L 244.359 223.424 ZM 287.555 223.424 L 251.195 223.424 L 251.195 219.054 L 256.845 218.084 L 256.845 178.324 L 251.195 177.354 L 251.195 172.944 L 256.845 172.944 L 263.675 172.944 L 269.325 172.944 L 269.325 177.354 L 263.675 178.324 L 263.675 218.194 L 281.525 218.194 L 282.325 210.214 L 287.555 210.214 L 287.555 223.424 ZM 331.583 223.424 L 293.143 223.424 L 293.143 219.054 L 298.793 218.084 L 298.793 178.324 L 293.143 177.354 L 293.143 172.944 L 330.513 172.944 L 330.513 185.084 L 325.033 185.084 L 324.273 178.214 L 305.623 178.214 L 305.623 194.654 L 324.243 194.654 L 324.243 200.024 L 305.623 200.024 L 305.623 218.294 L 325.383 218.294 L 326.143 211.324 L 331.583 211.324 L 331.583 223.424 ZM 361.229 224.154 C 356.169 224.154 351.946 223.044 348.559 220.824 C 345.173 218.604 342.629 215.564 340.929 211.704 C 339.229 207.844 338.379 203.464 338.379 198.564 L 338.379 197.844 C 338.379 192.897 339.269 188.497 341.049 184.644 C 342.829 180.797 345.383 177.764 348.709 175.544 C 352.043 173.331 356.019 172.224 360.639 172.224 C 363.899 172.224 366.879 172.731 369.579 173.744 C 372.286 174.764 374.529 176.057 376.309 177.624 L 376.309 188.514 L 370.869 188.514 L 370.139 180.544 C 369.399 179.964 368.549 179.477 367.589 179.084 C 366.629 178.691 365.566 178.391 364.399 178.184 C 363.233 177.977 361.969 177.874 360.609 177.874 C 357.303 177.874 354.506 178.721 352.219 180.414 C 349.926 182.114 348.193 184.454 347.019 187.434 C 345.839 190.421 345.249 193.867 345.249 197.774 L 345.249 198.564 C 345.249 202.797 345.879 206.411 347.139 209.404 C 348.399 212.397 350.236 214.677 352.649 216.244 C 355.063 217.817 358.003 218.604 361.469 218.604 C 363.089 218.604 364.673 218.407 366.219 218.014 C 367.766 217.621 369.049 217.114 370.069 216.494 L 370.829 209.454 L 376.169 209.454 L 376.169 220.404 C 374.276 221.584 372.013 222.504 369.379 223.164 C 366.739 223.824 364.023 224.154 361.229 224.154 ZM 412.716 223.424 L 394.576 223.424 L 394.576 219.054 L 400.226 218.084 L 400.226 178.114 L 388.786 178.114 L 387.786 185.114 L 382.656 185.114 L 382.656 172.944 L 424.606 172.944 L 424.606 185.114 L 419.536 185.114 L 418.496 178.114 L 407.056 178.114 L 407.056 218.084 L 412.716 219.054 L 412.716 223.424 Z" transform="matrix(1.3428189754486084, 0, 0, 1.5513839721679688, -157.30746459960938, -70.97881317138672)" style="fill: rgb(51, 51, 51); white-space: pre;"/>
</svg>