<?xml version="1.0" encoding="utf-8"?>
<svg viewBox="0 0 500 500" xmlns="http://www.w3.org/2000/svg">
  <path d="M 178.716 281.872 L 150.076 388.952 L 137.766 388.952 L 116.166 317.252 C 115.139 314.079 113.993 310.072 112.726 305.232 C 111.453 300.399 110.793 297.495 110.746 296.522 C 109.673 302.969 107.963 310.025 105.616 317.692 L 84.666 388.952 L 72.366 388.952 L 43.876 281.872 L 57.056 281.872 L 73.976 348.012 C 76.323 357.285 78.033 365.682 79.106 373.202 C 80.419 364.269 82.373 355.529 84.966 346.982 L 104.156 281.872 L 117.336 281.872 L 137.476 347.572 C 139.823 355.139 141.799 363.682 143.406 373.202 C 144.339 366.269 146.099 357.822 148.686 347.862 L 165.526 281.872 L 178.716 281.872 ZM 254.143 348.742 C 254.143 361.829 250.847 372.045 244.253 379.392 C 237.66 386.739 228.553 390.412 216.933 390.412 C 209.753 390.412 203.38 388.729 197.813 385.362 C 192.247 381.995 187.95 377.162 184.923 370.862 C 181.897 364.562 180.383 357.189 180.383 348.742 C 180.383 335.655 183.657 325.462 190.203 318.162 C 196.743 310.862 205.823 307.212 217.443 307.212 C 228.677 307.212 237.6 310.949 244.213 318.422 C 250.833 325.889 254.143 335.995 254.143 348.742 Z M 192.983 348.742 C 192.983 358.995 195.033 366.809 199.133 372.182 C 203.24 377.549 209.27 380.232 217.223 380.232 C 225.183 380.232 231.227 377.559 235.353 372.212 C 239.48 366.865 241.543 359.042 241.543 348.742 C 241.543 338.535 239.48 330.785 235.353 325.492 C 231.227 320.192 225.137 317.542 217.083 317.542 C 209.123 317.542 203.117 320.155 199.063 325.382 C 195.01 330.602 192.983 338.389 192.983 348.742 ZM 303.274 307.212 C 306.84 307.212 310.04 307.505 312.874 308.092 L 311.184 319.372 C 307.864 318.639 304.934 318.272 302.394 318.272 C 295.9 318.272 290.347 320.909 285.734 326.182 C 281.12 331.455 278.814 338.022 278.814 345.882 L 278.814 388.952 L 266.654 388.952 L 266.654 308.682 L 276.684 308.682 L 278.084 323.542 L 278.664 323.542 C 281.644 318.322 285.234 314.295 289.434 311.462 C 293.634 308.629 298.247 307.212 303.274 307.212 ZM 375.334 388.952 L 373.724 378.182 L 373.064 378.182 C 367.451 386.335 359.051 390.412 347.864 390.412 C 337.371 390.412 329.208 386.825 323.374 379.652 C 317.534 372.472 314.614 362.265 314.614 349.032 C 314.614 335.799 317.544 325.522 323.404 318.202 C 329.264 310.875 337.418 307.212 347.864 307.212 C 358.758 307.212 367.108 311.169 372.914 319.082 L 373.874 319.082 L 373.354 313.292 L 373.064 307.652 L 373.064 274.992 L 385.224 274.992 L 385.224 388.952 L 375.334 388.952 Z M 349.404 380.232 C 357.704 380.232 363.724 377.975 367.464 373.462 C 371.198 368.942 373.064 361.655 373.064 351.602 L 373.064 349.032 C 373.064 337.659 371.171 329.542 367.384 324.682 C 363.604 319.822 357.564 317.392 349.264 317.392 C 342.131 317.392 336.674 320.165 332.894 325.712 C 329.108 331.252 327.214 339.075 327.214 349.182 C 327.214 359.435 329.094 367.175 332.854 372.402 C 336.614 377.622 342.131 380.232 349.404 380.232 ZM 453.983 367.052 C 453.983 374.525 451.2 380.289 445.633 384.342 C 440.067 388.389 432.257 390.412 422.203 390.412 C 411.557 390.412 403.253 388.729 397.293 385.362 L 397.293 374.082 C 401.153 376.035 405.293 377.575 409.713 378.702 C 414.133 379.822 418.393 380.382 422.493 380.382 C 428.84 380.382 433.723 379.369 437.143 377.342 C 440.557 375.315 442.263 372.229 442.263 368.082 C 442.263 364.955 440.91 362.282 438.203 360.062 C 435.49 357.835 430.203 355.209 422.343 352.182 C 414.877 349.402 409.567 346.972 406.413 344.892 C 403.267 342.819 400.923 340.465 399.383 337.832 C 397.843 335.192 397.073 332.042 397.073 328.382 C 397.073 321.835 399.737 316.672 405.063 312.892 C 410.383 309.105 417.683 307.212 426.963 307.212 C 435.603 307.212 444.05 308.972 452.303 312.492 L 447.983 322.372 C 439.923 319.052 432.623 317.392 426.083 317.392 C 420.323 317.392 415.977 318.295 413.043 320.102 C 410.117 321.909 408.653 324.399 408.653 327.572 C 408.653 329.725 409.2 331.559 410.293 333.072 C 411.393 334.585 413.163 336.025 415.603 337.392 C 418.05 338.759 422.74 340.735 429.673 343.322 C 439.193 346.789 445.627 350.279 448.973 353.792 C 452.313 357.312 453.983 361.732 453.983 367.052 Z" transform="matrix(1, 0, 0, 1, 0, 0)" style="fill: rgb(122, 121, 121); white-space: pre;"/>
  <path d="M 283.349 182.041 L 262.179 182.041 L 257.349 206.941 L 278.069 206.941 L 278.069 216.391 L 255.589 216.391 L 249.439 247.881 L 239.399 247.881 L 245.549 216.391 L 223.359 216.391 L 217.359 247.881 L 207.399 247.881 L 213.249 216.391 L 194.069 216.391 L 194.069 206.941 L 215.089 206.941 L 220.069 182.041 L 199.779 182.041 L 199.779 172.731 L 221.679 172.731 L 227.679 140.801 L 237.859 140.801 L 231.859 172.731 L 254.199 172.731 L 260.349 140.801 L 270.159 140.801 L 264.009 172.731 L 283.349 172.731 L 283.349 182.041 Z M 229.949 182.041 L 225.119 206.941 L 247.309 206.941 L 252.149 182.041 L 229.949 182.041 Z" transform="matrix(1.6991081237792969, 0, 0, 1.5063400268554688, -154.8501434326172, -101.49441528320312)" style="fill: rgb(242, 190, 76); white-space: pre;"/>
</svg>