<?xml version="1.0" encoding="utf-8"?>
<svg viewBox="0 0 500 500" xmlns="http://www.w3.org/2000/svg">
  <g>
    <circle style="fill: rgb(164, 161, 156);" cx="151.941" cy="152.728" r="83.202" transform="matrix(1.359622, 0, 0, 1.336981, 146.044785, 150.001587)"/>
    <circle style="fill: rgb(255, 253, 249);" cx="140.745" cy="150.42" r="26.078" transform="matrix(0.501822, 0, 0, 0.538707, 241.259735, 245.260941)"/>
    <circle style="fill: rgb(255, 253, 249);" cx="140.745" cy="150.42" r="26.078" transform="matrix(0.501822, 0, 0, 0.538707, 323.355133, 247.2314)"/>
    <path style="stroke: rgb(255, 252, 252); fill: rgb(164, 161, 156); stroke-width: 12px;" d="M 319.497 454.918 C 356.272 454.92 379.258 405.501 360.872 365.962 C 356.359 356.258 349.725 348.34 341.736 343.124" transform="matrix(-0.255092, -0.966917, 0.966917, -0.255092, 45.203225, 832.866339)"/>
  </g>
  <circle style="fill: rgb(237, 156, 40);" cx="151.941" cy="152.728" r="83.202" transform="matrix(1.697084, 0, 0, 1.690974, -47.916809, -48.04068)"/>
  <circle style="fill: rgb(250, 247, 244);" cx="140.745" cy="150.42" r="26.078" transform="matrix(0.626376, 0, 0, 0.681341, 70.93074, 72.440575)"/>
  <circle style="fill: rgb(250, 247, 244);" cx="140.745" cy="150.42" r="26.078" transform="matrix(0.626376, 0, 0, 0.681341, 173.40242, 74.932755)"/>
  <path style="fill: rgb(244, 239, 239); stroke: rgb(255, 252, 252); fill-opacity: 0; stroke-width: 12px;" d="M 175.937 323.835 C 233.633 323.837 269.31 262.105 240.159 212.716 C 233.003 200.594 222.533 190.703 209.96 184.187" transform="matrix(0.239934, 0.970789, -0.970789, 0.239934, 408.666687, -13.944855)"/>
</svg>