<?xml version="1.0" encoding="utf-8"?>
<svg viewBox="0 0 500 500" xmlns="http://www.w3.org/2000/svg">
  <rect x="68.776" y="35.576" width="361.311" height="444.033" style="fill: rgb(216, 216, 216); stroke: rgb(17, 17, 16); stroke-width: 12px;"/>
  <rect y="83.468" width="294.107" height="18.127" style="stroke: rgb(13, 13, 12); fill: rgb(67, 66, 66);" x="103.31"/>
  <rect y="221.274" width="294.107" height="18.127" style="stroke: rgb(13, 13, 12); fill: rgb(67, 66, 66);" x="103.241"/>
  <rect y="174.628" width="294.107" height="18.127" style="stroke: rgb(13, 13, 12); fill: rgb(67, 66, 66);" x="102.717"/>
  <rect y="128.639" width="294.107" height="18.127" style="stroke: rgb(13, 13, 12); fill: rgb(67, 66, 66);" x="103.241"/>
  <rect y="268.135" width="294.107" height="18.127" style="stroke: rgb(13, 13, 12); fill: rgb(67, 66, 66);" x="102.339"/>
  <rect y="315.589" width="294.107" height="18.127" style="stroke: rgb(13, 13, 12); fill: rgb(67, 66, 66);" x="103.51"/>
  <rect y="363.778" width="294.107" height="18.127" style="stroke: rgb(13, 13, 12); fill: rgb(67, 66, 66);" x="103.555"/>
  <rect y="407.38" width="294.107" height="18.127" style="stroke: rgb(13, 13, 12); fill: rgb(67, 66, 66);" x="103.241"/>
  <rect x="127.656" y="79.112" width="16.957" height="25.393" style="fill: rgb(216, 216, 216);"/>
  <rect x="197.619" y="79.236" width="16.957" height="25.393" style="fill: rgb(216, 216, 216);"/>
  <rect x="280.074" y="76.853" width="16.957" height="25.393" style="fill: rgb(216, 216, 216);"/>
  <rect x="349.933" y="77.176" width="16.957" height="25.393" style="fill: rgb(216, 216, 216);"/>
  <rect x="195.034" y="123.234" width="16.957" height="25.393" style="fill: rgb(216, 216, 216);"/>
  <rect x="127.656" y="79.112" width="16.957" height="25.393" style="fill: rgb(216, 216, 216);" transform="matrix(1, 0, 0, 1, 15.0257, 45.061511)"/>
  <rect x="312.328" y="122.061" width="16.957" height="25.393" style="fill: rgb(216, 216, 216);"/>
  <rect x="199.227" y="170.122" width="16.957" height="25.393" style="fill: rgb(216, 216, 216);"/>
  <rect x="239.468" y="171.396" width="16.957" height="25.393" style="fill: rgb(216, 216, 216);"/>
  <rect x="332.063" y="169.042" width="16.957" height="25.393" style="fill: rgb(216, 216, 216);"/>
  <rect x="135.684" y="214.391" width="16.957" height="25.393" style="fill: rgb(216, 216, 216);"/>
  <rect x="240.829" y="214.675" width="16.957" height="25.393" style="fill: rgb(216, 216, 216);"/>
  <rect x="202.178" y="262.495" width="16.957" height="25.393" style="fill: rgb(216, 216, 216);"/>
  <rect x="242.766" y="262.142" width="16.957" height="25.393" style="fill: rgb(216, 216, 216);"/>
  <rect x="331.538" y="261.988" width="16.957" height="25.393" style="fill: rgb(216, 216, 216);"/>
  <rect x="142.04" y="309.731" width="16.957" height="25.393" style="fill: rgb(216, 216, 216);"/>
  <rect x="263.911" y="308.63" width="16.957" height="25.393" style="fill: rgb(216, 216, 216);"/>
  <rect x="233.377" y="358.769" width="16.957" height="25.393" style="fill: rgb(216, 216, 216);"/>
  <rect x="267.305" y="359.233" width="16.957" height="25.393" style="fill: rgb(216, 216, 216);"/>
  <rect x="306.349" y="359.559" width="16.957" height="25.393" style="fill: rgb(216, 216, 216);"/>
  <rect x="190.945" y="402.425" width="16.957" height="25.393" style="fill: rgb(216, 216, 216);"/>
  <rect x="297.117" y="404.978" width="16.957" height="25.393" style="fill: rgb(216, 216, 216);"/>
</svg>