<?xml version="1.0" encoding="utf-8"?>
<svg viewBox="0 0 500 500" xmlns="http://www.w3.org/2000/svg" xmlns:bx="https://boxy-svg.com">
  <rect x="68.776" y="35.576" width="361.311" height="444.033" style="fill: rgb(216, 216, 216); stroke: rgb(17, 17, 16); stroke-width: 12px;"/>
  <rect y="83.468" width="294.107" height="18.127" style="stroke: rgb(13, 13, 12); fill: rgb(67, 66, 66);" x="103.31"/>
  <rect y="221.274" width="294.107" height="18.127" style="stroke: rgb(13, 13, 12); fill: rgb(67, 66, 66);" x="103.241"/>
  <rect y="174.628" width="294.107" height="18.127" style="stroke: rgb(13, 13, 12); fill: rgb(67, 66, 66);" x="102.717"/>
  <rect y="128.639" width="294.107" height="18.127" style="stroke: rgb(13, 13, 12); fill: rgb(67, 66, 66);" x="103.241"/>
  <rect y="268.135" width="294.107" height="18.127" style="stroke: rgb(13, 13, 12); fill: rgb(67, 66, 66);" x="102.339"/>
  <rect y="315.589" width="294.107" height="18.127" style="stroke: rgb(13, 13, 12); fill: rgb(67, 66, 66);" x="103.51"/>
  <rect y="363.778" width="294.107" height="18.127" style="stroke: rgb(13, 13, 12); fill: rgb(67, 66, 66);" x="103.555"/>
  <rect y="407.38" width="294.107" height="18.127" style="stroke: rgb(13, 13, 12); fill: rgb(67, 66, 66);" x="103.241"/>
  <rect x="153.134" y="162.617" width="168.776" height="200.836" style="fill: rgb(242, 190, 76); stroke-linecap: round; stroke: rgb(242, 190, 76);" transform="matrix(0.790226, 0.612816, -0.612816, 0.790226, 214.383575, -120.966003)"/>
  <path d="M 312.972 49.165 L 398.076 149.587 L 227.867 149.587 L 312.972 49.165 Z" style="fill: rgb(242, 190, 76);" transform="matrix(0.781171, 0.624317, -0.624317, 0.781171, 153.165817, -157.140167)" bx:shape="triangle 227.867 49.165 170.209 100.422 0.5 0 1@f6a9767b"/>
  <circle style="fill: rgb(216, 216, 216);" cx="331.288" cy="120.153" r="26.672"/>
</svg>